<svg width="242" height="52" viewBox="0 0 242 52" fill="none" xmlns="http://www.w3.org/2000/svg">
<g clip-path="url(#clip0_180_2020)">
<path d="M62.0439 45.4403C61.8012 45.2733 61.5473 45.1546 61.3008 45.0729C61.0544 44.9987 60.7071 44.906 60.2739 44.8058C59.7101 44.6648 59.2582 44.4941 58.9408 44.3085C58.6346 44.1267 58.433 43.9263 58.3396 43.7074C58.2463 43.4811 58.1977 43.251 58.1977 43.021C58.1977 42.52 58.3583 42.1267 58.6757 41.8558C58.9968 41.5775 59.4524 41.4365 60.0349 41.4365C60.5054 41.4365 60.8901 41.5219 61.1776 41.6963C61.4577 41.867 61.6705 42.1341 61.8049 42.5015L61.8311 42.5757L62.4285 42.4903L62.3987 42.379C62.1298 41.4068 61.3344 40.9133 60.0349 40.9133C59.2732 40.9133 58.6645 41.1026 58.2239 41.4736C57.7795 41.8484 57.5554 42.379 57.5554 43.0469C57.5554 43.6443 57.7608 44.1304 58.1567 44.4941C58.5487 44.8466 59.1761 45.1286 60.0237 45.329C60.6996 45.4959 61.1066 45.6073 61.2411 45.6666C61.3718 45.726 61.5025 45.8002 61.6294 45.893C62.014 46.1787 62.2008 46.5869 62.2008 47.136C62.2008 47.6852 62.0178 48.1453 61.6518 48.4422C61.2859 48.7502 60.7332 48.906 60.0237 48.906C59.4673 48.906 59.0155 48.8021 58.6832 48.5943C58.3546 48.3902 58.1156 48.0711 57.9737 47.637L57.9475 47.5553L57.3389 47.6555L57.365 47.7631C57.5032 48.3197 57.7982 48.7427 58.2463 49.021C58.6832 49.2919 59.2806 49.4329 60.0312 49.4329C61.0432 49.4329 61.8012 49.1694 62.2866 48.6574C62.6638 48.2418 62.8542 47.7186 62.8542 47.0952C62.8542 46.7538 62.7833 46.4347 62.6451 46.149C62.5069 45.8596 62.3053 45.6258 62.0551 45.4477H62.0439V45.4403Z" fill="#1D5298"/>
<path d="M67.3914 49.3474H72.1674V48.8279H68.0225V45.3771H71.5812V44.8539H68.0225V41.5217H72.1936V40.9985H67.3877V49.3511L67.3914 49.3474Z" fill="#1D5298"/>
<path d="M81.491 44.8354C81.8458 44.4384 82.0213 43.9152 82.0213 43.2807C82.0213 42.5756 81.8047 42.0191 81.3753 41.622C81.1363 41.3994 80.8413 41.2361 80.5015 41.1359C80.1654 41.0394 79.736 40.9912 79.2281 40.9912H76.7188V49.3438H77.3498V45.5738H79.5343L81.3827 49.3438H82.0698L80.1691 45.5107C80.7218 45.4291 81.1661 45.199 81.491 44.8354ZM77.3498 41.5144H79.1982C79.5866 41.5144 79.9077 41.5441 80.1617 41.6072C80.4081 41.6703 80.6172 41.7704 80.7853 41.9152C81.1736 42.212 81.3715 42.6795 81.3715 43.2955C81.3715 43.8373 81.211 44.2677 80.9048 44.5831C80.6919 44.7909 80.4492 44.9208 80.1803 44.9727C79.9003 45.0284 79.6015 45.0543 79.2953 45.0543H77.3498V41.5144Z" fill="#1D5298"/>
<path d="M89.0124 48.1564L86.6337 41.0617L86.6113 40.9912H85.9541L88.7697 49.3438H89.229L92.0445 40.9912H91.3873L89.0124 48.1564Z" fill="#1D5298"/>
<path d="M97.0588 40.9912H96.4277V49.3438H97.0588V40.9912Z" fill="#1D5298"/>
<path d="M103.78 51.7H104.322L105.311 50.0117H104.508L103.78 51.7Z" fill="#1D5298"/>
<path d="M106.764 47.2992C106.738 47.8076 106.548 48.1935 106.189 48.4792C105.831 48.7649 105.345 48.9133 104.744 48.9133C104.038 48.9133 103.512 48.7204 103.183 48.3456C102.851 47.9634 102.679 47.3437 102.679 46.5051V43.8335C102.679 42.9949 102.847 42.3789 103.183 41.993C103.512 41.6145 104.046 41.4253 104.774 41.4253C105.356 41.4253 105.82 41.5626 106.156 41.8335C106.492 42.1043 106.671 42.4717 106.708 42.9652L106.716 43.0617L107.328 43.0431V42.9392C107.306 42.301 107.063 41.7964 106.611 41.4364C106.163 41.0802 105.543 40.9021 104.774 40.9021C103.844 40.9021 103.135 41.173 102.66 41.6999C102.444 41.9374 102.283 42.2342 102.19 42.5756C102.097 42.9095 102.052 43.34 102.052 43.8595V46.4866C102.052 46.9615 102.089 47.366 102.164 47.6814C102.235 48.0005 102.362 48.2788 102.53 48.5014C102.758 48.8057 103.067 49.0395 103.448 49.2027C103.825 49.366 104.262 49.4439 104.748 49.4439C105.233 49.4439 105.648 49.3734 105.988 49.2436C106.327 49.11 106.6 48.9356 106.805 48.7352C107.011 48.5311 107.16 48.3048 107.242 48.0599C107.324 47.8187 107.373 47.5775 107.384 47.34V47.2398L106.772 47.2064L106.764 47.3103V47.3029V47.2992Z" fill="#1D5298"/>
<path d="M117.284 41.789C116.753 41.199 115.984 40.8984 115.002 40.8984C114.095 40.8984 113.363 41.1582 112.821 41.6702C112.523 41.9634 112.328 42.2936 112.246 42.6536C112.164 43.0024 112.123 43.3549 112.123 43.7074V46.6313C112.123 47.4662 112.317 48.1119 112.706 48.5497C113.236 49.1397 114.009 49.4403 115.002 49.4403C115.898 49.4403 116.626 49.1805 117.168 48.6685C117.467 48.3753 117.657 48.0451 117.743 47.6814C117.825 47.3326 117.866 46.9764 117.866 46.6313V43.7074C117.866 43.1545 117.806 42.7463 117.687 42.4606C117.567 42.1823 117.433 41.9523 117.284 41.789ZM117.231 43.7667V46.5757C117.231 47.0618 117.187 47.4254 117.097 47.6518C117.007 47.8781 116.899 48.0673 116.772 48.2121C116.376 48.6796 115.783 48.9171 114.998 48.9171C114.278 48.9171 113.703 48.713 113.292 48.3085C113.105 48.1156 112.967 47.8818 112.885 47.6184C112.799 47.3475 112.754 46.9987 112.754 46.5757V43.7667C112.754 43.2807 112.803 42.9133 112.896 42.687C112.989 42.4569 113.098 42.2677 113.213 42.1304C113.609 41.6628 114.21 41.4253 115.002 41.4253C115.712 41.4253 116.279 41.6331 116.694 42.0339C116.88 42.2268 117.019 42.4569 117.104 42.7203C117.19 42.9875 117.235 43.34 117.235 43.7705L117.231 43.7667Z" fill="#1D5298"/>
<path d="M127.06 45.4403C126.817 45.2733 126.563 45.1546 126.317 45.0729C126.07 44.9987 125.727 44.906 125.29 44.8058C124.726 44.6648 124.274 44.4978 123.957 44.3085C123.647 44.1267 123.449 43.9263 123.356 43.7074C123.262 43.4811 123.214 43.251 123.214 43.021C123.214 42.5126 123.371 42.1341 123.692 41.8558C124.013 41.5775 124.468 41.4365 125.051 41.4365C125.521 41.4365 125.906 41.5219 126.194 41.6963C126.474 41.867 126.686 42.1341 126.821 42.5015L126.847 42.5757L127.441 42.4903L127.411 42.379C127.142 41.4068 126.347 40.9133 125.051 40.9133C124.289 40.9133 123.68 41.1026 123.24 41.4736C122.795 41.8484 122.571 42.379 122.571 43.0469C122.571 43.6443 122.777 44.1304 123.176 44.4941C123.568 44.8466 124.196 45.1286 125.043 45.329C125.719 45.4959 126.126 45.6073 126.261 45.6666C126.391 45.726 126.522 45.8002 126.649 45.893C127.034 46.1787 127.22 46.5869 127.22 47.136C127.22 47.6852 127.037 48.1453 126.675 48.4422C126.306 48.7502 125.757 48.906 125.047 48.906C124.491 48.906 124.039 48.8021 123.707 48.5943C123.378 48.3902 123.139 48.0711 122.997 47.637L122.971 47.5553L122.362 47.6555L122.388 47.7631C122.527 48.3197 122.822 48.7427 123.27 49.021C123.707 49.2919 124.304 49.4329 125.055 49.4329C126.067 49.4329 126.825 49.1694 127.31 48.6574C127.687 48.2418 127.878 47.7186 127.878 47.0952C127.878 46.7538 127.81 46.4347 127.669 46.149C127.527 45.8596 127.329 45.6258 127.079 45.4477H127.071L127.06 45.4403Z" fill="#1D5298"/>
<path d="M138.098 40.9912H137.467V49.3438H138.098V40.9912Z" fill="#1D5298"/>
<path d="M148.561 48.1601L143.878 40.9912H143.307V49.3438H143.938V42.1749L148.624 49.3438H149.195V40.9912H148.564V48.1601H148.561Z" fill="#1D5298"/>
<path d="M153.684 41.5181H156.148V49.3475H156.783V41.5181H159.233V40.9949H153.687V41.5181H153.684Z" fill="#1D5298"/>
<path d="M163.726 49.3474H168.498V48.8279H164.357V45.3771H167.919V44.8539H164.357V41.5217H168.531V40.9985H163.726V49.3511V49.3474Z" fill="#1D5298"/>
<path d="M173.669 40.9912H173.038V49.3438H177.9V48.8243H173.669V40.9912Z" fill="#1D5298"/>
<path d="M182.441 40.9912H181.81V49.3438H182.441V40.9912Z" fill="#1D5298"/>
<path d="M190.469 45.6035H192.505V46.7204C192.505 47.1768 192.46 47.5145 192.37 47.726C192.281 47.9412 192.172 48.1156 192.045 48.2529C191.859 48.4681 191.608 48.6314 191.302 48.7427C190.992 48.8577 190.641 48.9134 190.257 48.9134C189.502 48.9134 188.942 48.7204 188.595 48.3382C188.244 47.9523 188.065 47.3364 188.065 46.5052V43.8335C188.065 42.9949 188.236 42.379 188.58 41.9931C188.92 41.6146 189.469 41.4253 190.212 41.4253C190.802 41.4253 191.28 41.5626 191.627 41.8372C191.978 42.1081 192.165 42.4792 192.198 42.9615L192.206 43.058L192.837 43.0395V42.9356C192.803 42.2973 192.549 41.7927 192.083 41.4328C191.623 41.0765 190.985 40.8984 190.197 40.8984C189.26 40.8984 188.543 41.1693 188.057 41.6962C187.837 41.9337 187.676 42.2268 187.579 42.5608C187.482 42.891 187.434 43.3252 187.434 43.8521V46.4792C187.434 47.0766 187.486 47.507 187.59 47.8039C187.695 48.0933 187.814 48.3234 187.941 48.4941C188.18 48.7946 188.502 49.0321 188.901 49.1954C189.297 49.3549 189.753 49.4366 190.257 49.4366C191.201 49.4366 191.941 49.1805 192.449 48.6759C192.688 48.4458 192.863 48.1638 192.971 47.841C193.08 47.5219 193.136 47.1286 193.136 46.6722V45.0729H190.469V45.6035Z" fill="#1D5298"/>
<path d="M197.986 49.3474H202.766V48.8279H198.621V45.3771H202.18V44.8539H198.621V41.5217H202.792V40.9985H197.986V49.3511V49.3474Z" fill="#1D5298"/>
<path d="M212.553 48.1601L207.87 40.9912H207.299V49.3438H207.934V42.1749L212.616 49.3438H213.184V40.9912H212.553V48.1601Z" fill="#1D5298"/>
<path d="M217.68 41.5181H220.144V49.3475H220.775V41.5181H223.225V40.9949H217.683V41.5181H217.68Z" fill="#1D5298"/>
<path d="M227.718 49.3474H232.497V48.8279H228.353V45.3771H231.911V44.8539H228.353V41.5217H232.524V40.9985H227.718V49.3511V49.3474Z" fill="#1D5298"/>
<path d="M241.785 46.1416C241.643 45.8522 241.445 45.6184 241.195 45.4403C240.952 45.2733 240.698 45.1546 240.452 45.0729C240.205 44.9987 239.862 44.906 239.425 44.8058C238.861 44.6648 238.409 44.4941 238.092 44.3085C237.785 44.1267 237.584 43.9263 237.494 43.7074C237.401 43.4811 237.352 43.251 237.352 43.021C237.352 42.52 237.513 42.1267 237.83 41.8558C238.155 41.5775 238.607 41.4365 239.189 41.4365C239.66 41.4365 240.045 41.5219 240.332 41.6963C240.612 41.867 240.825 42.1341 240.959 42.5015L240.986 42.5757L241.579 42.4903L241.549 42.379C241.281 41.4068 240.485 40.9133 239.189 40.9133C238.428 40.9133 237.819 41.1026 237.378 41.4736C236.934 41.8484 236.71 42.379 236.71 43.0469C236.71 43.6443 236.912 44.1304 237.311 44.4941C237.703 44.8466 238.331 45.1286 239.178 45.329C239.854 45.4959 240.261 45.6073 240.396 45.6666C240.526 45.726 240.657 45.8002 240.784 45.893C241.169 46.1787 241.355 46.5869 241.355 47.136C241.355 47.6852 241.172 48.1453 240.81 48.4422C240.44 48.7502 239.891 48.906 239.182 48.906C238.626 48.906 238.174 48.8021 237.841 48.5943C237.513 48.3902 237.274 48.0711 237.132 47.637L237.106 47.5553L236.497 47.6555L236.523 47.7631C236.661 48.3197 236.956 48.7427 237.404 49.021C237.841 49.2919 238.439 49.4329 239.189 49.4329C240.201 49.4329 240.959 49.1694 241.445 48.6574C241.822 48.2418 242.012 47.7186 242.012 47.0952C242.012 46.7538 241.941 46.4347 241.803 46.149H241.792L241.785 46.1416Z" fill="#1D5298"/>
<path d="M57.3311 5.52882V32.312H63.3692V0C60.0346 0 57.3311 2.47498 57.3311 5.52882Z" fill="#1D5298"/>
<path d="M88.7912 22.8128L74.5528 6.06304C74.5528 6.06304 69.7171 6.06304 69.5752 10.3711V32.3119H75.6133V15.5622L89.8517 32.3119H94.8331V6.05933H88.7949V22.809L88.7912 22.8128Z" fill="#1D5298"/>
<path d="M100.001 10.2857H109.012V32.3045H115.05V10.2857H124.008V6.05933H105.684C102.544 6.05933 100.001 7.95545 100.001 10.2857Z" fill="#1D5298"/>
<path d="M129.188 10.1598V32.3121H150.383V28.0857H135.226V21.1432H142.13C143.698 21.1432 144.972 20.197 144.972 19.0281C144.972 17.8593 143.698 16.9131 142.13 16.9131H135.226V10.2896H150.487V6.06323H133.665C131.189 6.06323 129.188 7.89999 129.188 10.1635V10.1598Z" fill="#1D5298"/>
<path d="M161.753 6.05933C158.418 6.05933 155.715 8.07048 155.715 10.5529V32.3119H177.224V28.0855H161.757V6.05933H161.753Z" fill="#1D5298"/>
<path d="M182.373 10.5529V32.3119H188.411V6.05933C185.077 6.05933 182.373 8.07048 182.373 10.5529Z" fill="#1D5298"/>
<path d="M214.883 8.8833V6.06323H199.942C196.802 6.06323 194.259 7.95936 194.259 10.2896H207.19L193.374 29.4883V32.3084H215.506V28.082H201.066L214.883 8.8833Z" fill="#1D5298"/>
<path d="M241.765 10.2857V6.05933H224.943C222.467 6.05933 220.466 7.89608 220.466 10.1596V32.3119H241.661V28.0855H226.504V21.143H234.215C235.488 21.143 236.523 20.1968 236.523 19.0279C236.523 17.8591 235.488 16.9129 234.215 16.9129H226.504V10.2894H241.765V10.2857Z" fill="#1D5298"/>
<path d="M21.5385 44.1748C20.9373 44.7277 18.9918 46.3678 16.1912 46.3678C15.4145 46.3678 14.1187 46.3678 13.0134 45.5552C11.0231 44.0858 11.1053 41.0393 11.1613 39.121C11.2397 36.2527 12.0276 34.2007 12.9686 31.7888C14.8282 27.0392 17.1808 23.7293 18.3981 22.1486C20.5602 19.336 22.5729 17.4918 23.2301 16.9055C26.1316 14.3155 29.9292 11.0093 34.9218 10.7719C35.9972 10.7199 38.4954 10.6012 39.6492 12.1262C40.3027 12.9908 40.4558 14.3044 40.523 14.8721C40.6388 15.8814 40.5417 16.7274 40.4334 17.2914C40.8068 16.6829 42.0018 14.5752 41.5387 11.8702C41.4267 11.232 41.0682 9.12064 39.3841 7.83305C38.9696 7.51394 37.2892 6.34139 32.9688 7.22451C27.3862 8.36367 23.611 11.6772 20.7954 14.1968C19.72 15.1578 16.546 18.1077 13.5213 22.772C11.6542 25.6514 10.5265 28.1301 9.93648 29.5513C8.62953 32.6793 7.07611 36.5309 7.42339 41.3547C7.58023 43.4921 7.74826 45.4476 9.27554 46.8056C11.2024 48.5199 13.9881 48.1303 15.0224 47.9856C18.6334 47.481 20.8514 45.0023 21.5348 44.1674L21.5385 44.1748Z" fill="url(#paint0_linear_180_2020)"/>
<path fill-rule="evenodd" clip-rule="evenodd" d="M4.44722 42.2156C4.09621 40.0932 3.79374 37.1135 4.03272 33.5662C4.13355 32.0745 4.30905 29.6107 5.13804 26.7424C5.81392 24.3936 7.33746 20.3416 11.0231 16.104C12.2927 14.5011 14.2419 12.3712 17.0276 10.3711C20.4182 7.93698 23.5923 6.73845 25.4631 6.15218C29.2869 4.94994 32.6364 4.75328 34.8956 4.7978C32.9202 4.167 30.0262 3.49909 26.5049 3.56959C22.9911 3.64009 20.3025 4.4119 19.0403 4.82749C18.1665 5.11321 15.8065 5.94438 13.1105 7.69579C12.3786 8.16704 9.76093 9.91474 7.09474 13.0279C6.01557 14.2933 4.50696 16.0818 3.23361 18.8313C2.91621 19.5215 1.56071 22.5308 1.18729 26.7832C1.12381 27.4845 0.933368 29.9966 1.44868 33.2545C1.78476 35.3881 2.54279 38.6163 4.45095 42.2231L4.44722 42.2156Z" fill="url(#paint1_linear_180_2020)"/>
<path fill-rule="evenodd" clip-rule="evenodd" d="M0.888731 18.7979L0 7.81818L10.6872 7.40259C10.6872 7.40259 4.12999 11.3804 0.888731 18.7979Z" fill="url(#paint2_linear_180_2020)"/>
<path fill-rule="evenodd" clip-rule="evenodd" d="M21.1689 32.6533L45.2207 43.852L28.2452 22.7349L32.8868 34.5532L21.1689 32.6533Z" fill="url(#paint3_linear_180_2020)"/>
</g>
<defs>
<linearGradient id="paint0_linear_180_2020" x1="25.732" y1="51.3215" x2="23.4348" y2="4.47723" gradientUnits="userSpaceOnUse">
<stop stop-color="#F08F3E"/>
<stop offset="1" stop-color="#D03816"/>
</linearGradient>
<linearGradient id="paint1_linear_180_2020" x1="19.705" y1="51.6183" x2="17.4115" y2="4.77411" gradientUnits="userSpaceOnUse">
<stop stop-color="#F08F3E"/>
<stop offset="1" stop-color="#D03816"/>
</linearGradient>
<linearGradient id="paint2_linear_180_2020" x1="7.55795" y1="52.212" x2="5.26075" y2="5.36774" gradientUnits="userSpaceOnUse">
<stop stop-color="#F08F3E"/>
<stop offset="1" stop-color="#D03816"/>
</linearGradient>
<linearGradient id="paint3_linear_180_2020" x1="33.8203" y1="50.9244" x2="31.5305" y2="4.08018" gradientUnits="userSpaceOnUse">
<stop stop-color="#F08F3E"/>
<stop offset="1" stop-color="#D03816"/>
</linearGradient>
<clipPath id="clip0_180_2020">
<rect width="242" height="51.7" fill="white"/>
</clipPath>
</defs>
</svg>
